<?xml version="1.0" encoding="utf-8"?>
<!-- Generator: Adobe Illustrator 27.5.0, SVG Export Plug-In . SVG Version: 6.00 Build 0)  -->
<svg version="1.1" xmlns="http://www.w3.org/2000/svg" xmlns:xlink="http://www.w3.org/1999/xlink" x="0px" y="0px"
	 viewBox="0 0 500 500" style="enable-background:new 0 0 500 500;" xml:space="preserve">
<g id="BACKGROUND">
	<linearGradient id="SVGID_1_" gradientUnits="userSpaceOnUse" x1="250" y1="-73.929" x2="250" y2="623.321">
		<stop  offset="0" style="stop-color:#F5CAF5"/>
		<stop  offset="0" style="stop-color:#F5F5F5"/>
		<stop  offset="1" style="stop-color:#FFFFFF;stop-opacity:0"/>
	</linearGradient>
	<rect style="fill:url(#SVGID_1_);" width="500" height="500"/>
</g>
<g id="OBJECTS">
	<g>
		<defs>
			<path id="SVGID_00000161611564200883224870000011821956481371961526_" d="M459.987,116.802
				c-6.443-3.027-13.346-3.886-19.89-2.877l3.241-6.899c8.1-17.246,0.686-37.793-16.561-45.893
				c-17.244-8.102-37.793-0.686-45.893,16.561l-4.374,9.313c-2.63-9.28-9.105-17.415-18.521-21.837
				c-17.244-8.102-37.794-0.686-45.894,16.56l-10.393,22.128c-2.456-9.655-9.052-18.175-18.773-22.741
				c-10.642-5-22.54-4.083-31.997,1.401c4.852-16.11-2.697-33.769-18.381-41.135c-17.244-8.102-37.793-0.686-45.893,16.56
				L176.34,79.908c-3.197-7.564-9.086-14.021-17.103-17.787c-17.243-8.101-37.793-0.686-45.893,16.56L28.876,258.525
				c-8.1,17.247-0.686,37.794,16.561,45.895c4.741,2.227,9.73,3.28,14.644,3.28c3.398,0,6.755-0.517,9.971-1.487l-20.595,43.85
				c-8.1,17.247-0.686,37.794,16.561,45.894c4.741,2.227,9.73,3.28,14.644,3.28c10.978,0,21.552-5.281,28.103-14.493
				c1.73,10.913,8.66,20.805,19.414,25.857c4.741,2.227,9.73,3.28,14.644,3.28c8.28,0,16.331-3.007,22.604-8.433
				c1.164,11.686,8.264,22.484,19.667,27.84c4.741,2.227,9.73,3.28,14.643,3.28c7.754,0,15.303-2.644,21.384-7.433
				c1.123,11.738,8.231,22.597,19.678,27.974c4.741,2.227,9.73,3.28,14.644,3.28c12.958,0,25.377-7.336,31.25-19.841l13.084-27.857
				l14.584-31.051c3.396,5.462,8.355,10.04,14.611,12.978c4.741,2.227,9.73,3.28,14.643,3.28c12.959,0,25.377-7.336,31.25-19.841
				l103.686-220.763C483.012,141.36,475.463,124.07,459.987,116.802z"/>
		</defs>
		
			<use xlink:href="#SVGID_00000161611564200883224870000011821956481371961526_"  style="overflow:visible;opacity:0.9;fill:#A8AFFF;"/>
		<clipPath id="SVGID_00000085227518052076043610000010921915679250199484_">
			<use xlink:href="#SVGID_00000161611564200883224870000011821956481371961526_"  style="overflow:visible;opacity:0.9;"/>
		</clipPath>
		<path style="clip-path:url(#SVGID_00000085227518052076043610000010921915679250199484_);fill:#FEE3FF;" d="M260.87,137.667
			h152.816c0,0-7.273-9.842-25.851-9.842c-18.578,0-22.707,6.492-31.481-1.097c-8.774-7.589-12.651-23.912-28.003-17.041
			c-15.352,6.871-16.384,13.581-25.675,11.001c-9.29-2.581-10.839-11.293-21.678-3.066
			C270.161,125.85,260.87,137.667,260.87,137.667z"/>
		<path style="clip-path:url(#SVGID_00000085227518052076043610000010921915679250199484_);fill:#FEE3FF;" d="M256.868,273.47
			h152.816c0,0-7.274-9.842-25.851-9.842c-18.578,0-22.707,6.492-31.481-1.097c-8.774-7.589-12.651-23.912-28.003-17.041
			c-15.352,6.871-16.384,13.581-25.675,11.001c-9.29-2.581-10.839-11.293-21.677-3.066
			C266.159,261.652,256.868,273.47,256.868,273.47z"/>
		<g style="clip-path:url(#SVGID_00000085227518052076043610000010921915679250199484_);">
			<path style="fill:#8A4BD8;" d="M196.48,385.907c0,0,169.857-53.959,175.509-56.786c5.652-2.827,93.136,75.201,93.136,75.201
				l-250.195,7.747L196.48,385.907z"/>
			<path style="fill:#8A4BD8;" d="M-10.014,343.547c0,0,126.157-15.614,131.874-16.047c5.717-0.433,153.988,46.003,192.498,54.14
				c38.51,8.137,110.703,21.324,110.703,21.324s-118.288,81.265-195.112,75.845s-239.964-54.422-239.964-54.422V343.547z"/>
			<path style="fill:#BA85E3;" d="M235.335,402.965l-13.565-29.03c0,0,82.376,24.047,94.788,22.365
				c12.411-1.681,99.326,8.022,99.326,8.022l-0.864-3.204c-21.182-3.913-70.946-13.198-100.661-19.476
				c-38.509-8.137-186.781-54.573-192.498-54.14c0,0,68.943,58.406,70.62,58.406S235.335,402.965,235.335,402.965z"/>
		</g>
		<g style="clip-path:url(#SVGID_00000085227518052076043610000010921915679250199484_);">
			<path style="fill:#7D80FF;" d="M75.141,422.81c0,0-24.774,9.806-32-13.935c-7.226-23.742,7.742-22.71,0.516-41.29
				c-7.226-18.581-16.516-29.935-4.645-35.097c11.871-5.161,16.516,2.065,16-16.516c-0.516-18.581-16.516-42.839-7.226-53.161
				s17.032-3.097,14.968-27.871c-2.065-24.774,2.065-44.387,18.581-35.097c16.516,9.29-3.613,37.677,7.742,51.097
				c11.355,13.419,19.613,7.226,15.484,28.903c-4.129,21.677-20.938,34.273-10.581,41.614c6.678,4.732,14.189-11.374,21.419,7.665
				c7.226,19.029-18.581,26.592-10.323,41.044C113.334,384.616,118.495,436.229,75.141,422.81z"/>
			<path style="opacity:0.9;fill:#A8DAFF;" d="M76.141,365.497c3.127-1.748,18.715-11.088,24.454-26.551
				c0.192-0.518-0.072-1.093-0.589-1.285c-0.517-0.193-1.094,0.071-1.286,0.59c-4.976,13.409-18.169,22.264-22.579,24.923v-62.932
				c2.345-1.654,12.749-9.726,16.743-25.3c0.137-0.534-0.186-1.079-0.72-1.217c-0.536-0.136-1.08,0.186-1.217,0.721
				c-3.306,12.891-11.406,20.537-14.805,23.274v-51.53c0-0.552-0.448-1-1-1c-0.552,0-1,0.448-1,1v45.431
				c-3.494-2.098-12.32-8.176-15.074-17.448c-0.157-0.528-0.714-0.832-1.243-0.674c-0.529,0.157-0.831,0.714-0.674,1.244
				c3.317,11.168,14.361,17.759,16.991,19.193v77.203c-4.518-2.342-18.735-10.676-24.39-25.336
				c-0.199-0.515-0.778-0.772-1.293-0.572c-0.515,0.198-0.772,0.777-0.573,1.293c6.434,16.68,22.871,25.243,26.256,26.859v33.471
				c-3.381-0.822-13.343-3.765-20.138-11.203c-0.372-0.407-1.005-0.436-1.413-0.064s-0.437,1.005-0.064,1.413
				c7.573,8.29,18.527,11.224,21.614,11.913v22.67c0,0.553,0.448,1,1,1c0.552,0,1-0.447,1-1v-18.77
				c2.994-0.948,14.205-5.085,22.005-15.931c0.322-0.448,0.22-1.073-0.228-1.395c-0.448-0.322-1.073-0.221-1.396,0.227
				c-6.909,9.607-16.897,13.766-20.381,14.983V365.497z"/>
		</g>
		<g style="clip-path:url(#SVGID_00000085227518052076043610000010921915679250199484_);">
			<path style="fill:#7D80FF;" d="M395.749,400.228c0,0-37.72,10.194-41.333-23.87c-3.613-34.064,18.064-30.968,14.452-52.645
				c-3.613-21.677-21.161-33.548-16-44.903c5.161-11.355,10.323-6.71,21.161-13.419c10.839-6.71,4.523-17.152,4.333-40.118
				c-0.189-22.965-5.882-48.657,14.247-49.173c20.129-0.516,21.161,16.516,21.677,34.064c0.516,17.548-6.71,39.742,5.161,41.29
				c11.871,1.548,23.226,4.129,13.935,29.419c-9.29,25.29-13.419,37.677-6.194,55.742
				C434.416,354.681,448.093,411.971,395.749,400.228z"/>
			<path style="opacity:0.9;fill:#A8DAFF;" d="M420.691,272c0.174-0.524-0.11-1.091-0.634-1.265
				c-0.522-0.171-1.091,0.11-1.265,0.634c-5.65,17.014-17.881,25.423-22.044,27.871v-86.502c0-0.552-0.447-1-1-1s-1,0.448-1,1
				v94.615c-17.597-5.878-27.347-24.298-27.445-24.489c-0.254-0.49-0.857-0.68-1.349-0.427c-0.489,0.255-0.681,0.857-0.427,1.348
				c0.422,0.815,10.445,19.773,29.221,25.668v67.603c-13.921-3.038-23.218-16.725-23.313-16.868
				c-0.308-0.458-0.928-0.585-1.388-0.275c-0.459,0.307-0.583,0.927-0.276,1.386c0.409,0.614,10.023,14.781,24.977,17.796v32.875
				c0,0.553,0.447,1,1,1s1-0.447,1-1v-40.246c2.968-0.941,13.801-5.188,22.011-18.985c0.282-0.475,0.127-1.089-0.348-1.371
				c-0.478-0.284-1.088-0.126-1.371,0.348c-7.289,12.25-16.912,16.656-20.292,17.885v-68.057
				C399.842,299.92,414.223,291.476,420.691,272z"/>
		</g>
	</g>
	<g>
		<path style="fill:#FEE3FF;" d="M13.621,199.95h152.816c0,0-7.273-9.842-25.851-9.842s-22.707,6.492-31.481-1.097
			s-12.651-23.912-28.003-17.041c-15.352,6.872-16.384,13.581-25.675,11.001c-9.29-2.581-10.839-11.293-21.677-3.066
			C22.911,188.133,13.621,199.95,13.621,199.95z"/>
		<path style="fill:#FEE3FF;" d="M339.109,177.206h152.816c0,0-7.273-9.842-25.851-9.842c-18.578,0-22.707,6.492-31.481-1.097
			c-8.774-7.589-12.651-23.912-28.003-17.041c-15.352,6.872-16.384,13.581-25.675,11.001c-9.29-2.581-10.839-11.293-21.677-3.066
			C348.4,165.388,339.109,177.206,339.109,177.206z"/>
	</g>
	<g>
		<path style="fill:#E6F1FF;" d="M298.83,99.451H183.344c-7.912,0-14.326,6.414-14.326,14.326v242.872
			c0,7.912,6.414,14.326,14.326,14.326H298.83c7.912,0,14.326-6.414,14.326-14.326V113.776
			C313.155,105.865,306.742,99.451,298.83,99.451z"/>
		<g>
			<path style="fill:#7B1A8E;" d="M298.83,104.177h-24.425c-1.513,0-2.897,0.854-3.575,2.206l0,0
				c-1.16,2.312-3.526,3.772-6.114,3.772h-47.258c-2.587,0-4.953-1.46-6.113-3.772l0,0c-0.679-1.352-2.062-2.206-3.575-2.206
				h-24.425c-5.302,0-9.6,4.298-9.6,9.6v242.872c0,5.302,4.298,9.6,9.6,9.6H298.83c5.302,0,9.6-4.298,9.6-9.6V113.776
				C308.43,108.475,304.132,104.177,298.83,104.177z"/>
		</g>
		<g>
			<g>
				<path style="fill:#FFFFFF;" d="M217.884,267.289c0-2.307,0.33-4.174,0.989-5.602c0.66-1.429,1.632-2.483,2.917-3.16
					c1.285-0.679,2.87-1.018,4.755-1.018c0.671,0,1.454,0.064,2.352,0.191v3.494c-0.754-0.143-1.572-0.215-2.454-0.215
					c-1.492,0-2.604,0.328-3.335,0.984c-0.731,0.655-1.131,1.726-1.199,3.211h0.136c0.678-1.281,1.768-1.922,3.268-1.922
					c1.47,0,2.61,0.473,3.42,1.419c0.81,0.946,1.215,2.264,1.215,3.952c0,1.816-0.513,3.251-1.538,4.302
					c-1.025,1.052-2.458,1.578-4.297,1.578c-1.953,0-3.479-0.634-4.58-1.9C218.435,271.338,217.884,269.567,217.884,267.289z
					 M224.013,270.964c0.475,0,0.861-0.179,1.159-0.537c0.298-0.357,0.447-0.929,0.447-1.713c0-1.342-0.52-2.013-1.561-2.013
					c-0.513,0-0.929,0.174-1.249,0.521c-0.32,0.347-0.48,0.769-0.48,1.267c0,0.724,0.154,1.317,0.463,1.78
					C223.101,270.733,223.508,270.964,224.013,270.964z"/>
				<path style="fill:#FFFFFF;" d="M233.025,274.278l5.676-12.812h-7.158v-3.697h11.93v2.635l-5.824,13.874H233.025z"/>
				<path style="fill:#FFFFFF;" d="M253.175,262.676c0,1.658-0.374,2.942-1.12,3.851c-0.746,0.908-1.809,1.362-3.188,1.362
					c-1.297,0-2.324-0.47-3.082-1.408c-0.757-0.939-1.136-2.206-1.136-3.805c0-1.658,0.369-2.935,1.108-3.827
					c0.739-0.894,1.775-1.34,3.11-1.34c1.319,0,2.367,0.463,3.143,1.391C252.786,259.827,253.175,261.086,253.175,262.676z
					 M248.052,262.721c0,0.867,0.072,1.493,0.215,1.878c0.143,0.384,0.358,0.576,0.645,0.576c0.287,0,0.499-0.188,0.639-0.565
					c0.139-0.377,0.209-1.006,0.209-1.889c0-0.866-0.07-1.492-0.209-1.877c-0.14-0.384-0.353-0.576-0.639-0.576
					c-0.294,0-0.511,0.196-0.65,0.588C248.122,261.247,248.052,261.87,248.052,262.721z M261.418,257.746l-9.17,16.531h-3.358
					l9.17-16.531H261.418z M265.749,269.257c0,1.651-0.375,2.931-1.125,3.839c-0.75,0.908-1.811,1.362-3.183,1.362
					c-1.297,0-2.324-0.469-3.082-1.407c-0.757-0.939-1.136-2.203-1.136-3.794c0-1.658,0.369-2.935,1.108-3.827
					c0.738-0.894,1.775-1.341,3.109-1.341c1.319,0,2.367,0.464,3.144,1.392C265.36,266.408,265.749,267.666,265.749,269.257z
					 M260.626,269.302c0,0.867,0.071,1.493,0.215,1.877c0.143,0.385,0.358,0.577,0.645,0.577c0.324,0,0.548-0.221,0.672-0.661
					c0.125-0.442,0.186-1.039,0.186-1.793c0-0.753-0.062-1.351-0.186-1.792c-0.124-0.44-0.349-0.661-0.672-0.661
					c-0.294,0-0.511,0.196-0.65,0.588C260.696,267.829,260.626,268.451,260.626,269.302z"/>
			</g>
			<g>
				<path style="fill:#E07ED0;" d="M241.458,182.781c-18.093-20.432-33.939-4.031-31.242,12.204
					c2.697,16.235,31.242,35.95,31.242,35.95s28.545-19.714,31.242-35.95C275.397,178.75,259.552,162.349,241.458,182.781z"/>
				<g>
					<path style="fill:#FFFFFF;" d="M240.334,211.432L240.334,211.432c-0.443,0-0.856-0.224-1.096-0.596l-6.631-10.232l-2.185,3.372
						c-0.241,0.372-0.654,0.596-1.096,0.596h-25.008c-0.722,0-1.306-0.585-1.306-1.306c0-0.722,0.585-1.306,1.306-1.306h24.298
						l2.896-4.467c0.241-0.372,0.654-0.596,1.096-0.596l0,0c0.443,0,0.856,0.224,1.096,0.596l6.631,10.232l8.527-13.155
						c0.481-0.743,1.711-0.743,2.193,0l4.487,6.922h20.588c0.721,0,1.306,0.585,1.306,1.306c0,0.722-0.585,1.306-1.306,1.306H254.83
						c-0.443,0-0.856-0.224-1.096-0.596l-3.776-5.826l-8.527,13.155C241.19,211.208,240.777,211.432,240.334,211.432z"/>
				</g>
			</g>
			<g>
				<path style="fill:#FFFFFF;" d="M254.136,295.779H201.06c-0.674,0-1.22-0.546-1.22-1.22l0,0c0-0.674,0.546-1.22,1.22-1.22h53.077
					c0.674,0,1.22,0.546,1.22,1.22l0,0C255.357,295.232,254.81,295.779,254.136,295.779z"/>
				<path style="fill:#FFFFFF;" d="M283.684,303.37H201.06c-0.674,0-1.22-0.546-1.22-1.22l0,0c0-0.674,0.546-1.22,1.22-1.22h82.624
					c0.674,0,1.22,0.546,1.22,1.22l0,0C284.904,302.824,284.358,303.37,283.684,303.37z"/>
			</g>
			<g>
				<g>
					<rect x="200.332" y="320.64" style="fill:#E07ED0;" width="26.669" height="2.625"/>
					<rect x="200.332" y="326.188" style="fill:#E07ED0;" width="35.314" height="2.625"/>
					<rect x="200.337" y="331.741" style="fill:#E07ED0;" width="19.18" height="2.62"/>
					<rect x="221.967" y="331.741" style="fill:#E07ED0;" width="13.68" height="2.62"/>
					<rect x="200.332" y="337.285" style="fill:#E07ED0;" width="35.314" height="2.625"/>
				</g>
				<g>
					<rect x="250.409" y="320.64" style="fill:#E07ED0;" width="27.495" height="2.625"/>
					<rect x="250.413" y="326.193" style="fill:#E07ED0;" width="30.846" height="2.62"/>
					<rect x="250.409" y="331.737" style="fill:#E07ED0;" width="29.431" height="2.625"/>
				</g>
			</g>
		</g>
		<g>
			<path style="fill:#7B1A8E;" d="M250.715,107h-22.515c-0.634,0-1.147-0.514-1.147-1.147l0,0c0-0.634,0.514-1.147,1.147-1.147
				h22.515c0.634,0,1.147,0.514,1.147,1.147l0,0C251.863,106.486,251.349,107,250.715,107z"/>
			<path style="fill:#7B1A8E;" d="M256.842,105.853c0,0.634-0.514,1.147-1.147,1.147c-0.634,0-1.147-0.514-1.147-1.147
				s0.514-1.147,1.147-1.147C256.328,104.705,256.842,105.219,256.842,105.853z"/>
		</g>
	</g>
	<g>
		
			<linearGradient id="SVGID_00000178889091522663415930000000470520317715325575_" gradientUnits="userSpaceOnUse" x1="224.6066" y1="431.2592" x2="430.3264" y2="431.2592">
			<stop  offset="0" style="stop-color:#9431AF"/>
			<stop  offset="1" style="stop-color:#3D0067"/>
		</linearGradient>
		<path style="opacity:0.45;fill:url(#SVGID_00000178889091522663415930000000470520317715325575_);" d="M430.326,431.259
			c0,3.795-46.052,6.871-102.86,6.871s-102.86-3.076-102.86-6.871c0-3.795,46.052-6.871,102.86-6.871
			S430.326,427.465,430.326,431.259z"/>
		<g>
			<path style="fill:#F8C0BE;" d="M254.484,401.564l-3.193,2.758c0,0-3.871-4.339-3.194-7.806l0.965,0.069l2.712-0.258
				L254.484,401.564z"/>
			<path style="fill:#380094;" d="M358.802,325.544c-4.84,5.09-15.29,13.39-25.84,21.36c-9.44,7.13-18.97,13.99-24.6,18v0.01
				c-0.65,0.46-1.26,0.88-1.8,1.27c-8.11,7.92-53.05,36.78-53.05,36.78c-0.32-0.32-0.65-0.7-0.97-1.1c-1.8-2.22-3.48-5.28-3.48-5.28
				s13.74-10.46,14.91-11.42c1.16-0.97,19.93-21.68,24.58-24.97c3.05-2.17,7.52-3.66,10.23-4.43c6.14-8.04,26.81-37.18,29.06-42.02
				c2.51-5.42,11.78-20.41,11.78-20.41L358.802,325.544z"/>
			<path style="fill:#170052;" d="M358.806,325.547l-19.185-32.209c0,0-1.76,2.845-3.954,6.504c-0.099,0.445-0.159,0.71-0.159,0.71
				s-4.38,8.17-2.832,27.959c0.629,8.044,0,12.326,0,12.326l-18.194,15.677l-6.121,8.384l1.609-5.735l-25.55,19.9l-31.88,22.8
				c0.32,0.4,0.65,0.78,0.97,1.1c0,0,44.94-28.86,53.05-36.78c0.54-0.39,1.8-1.28,1.8-1.28l0.001-0.003
				C320.279,356.414,349.63,335.182,358.806,325.547z"/>
			<g>
				<path style="fill:#A0279B;" d="M254.096,427.55c-2.06,0.71-4.97,0.11-7.94-1.76c-2.96-1.87-5.61-6.19-6-8.26
					c-0.38-2.06-0.83-7.03-3.16-10.77c-2.32-3.74-2.9-5.29-2.38-8.26c0,0,0.33-0.15,0.91-0.37c2.02-0.78,7.16-2.42,12.57-1.61
					c0,0,1.47,5.87,4.45,7.54c0,0-0.39,4.46-1.03,7.23c-0.65,2.77-1.36,6.77-0.84,8.13c0.3,0.79,2.16,2.08,3.85,3.1
					c1.2,0.73,2.32,1.32,2.73,1.48C258.226,424.39,256.156,426.84,254.096,427.55z"/>
				<path style="fill:#78048B;" d="M254.096,427.55c-2.06,0.71-4.97,0.11-7.94-1.76c-2.96-1.87-5.61-6.19-6-8.26
					c-0.38-2.06-0.83-7.03-3.16-10.77c-2.32-3.74-2.9-5.29-2.38-8.26c0,0,0.33-0.15,0.91-0.37c0.09,2.72,1.34,6.55,3.76,9.07
					c2.73,2.84,2.55,8.51,4.32,10.96c1.77,2.46,5.07,5.94,8.3,6.23c2.14,0.19,2.58-1.03,2.62-1.87c1.2,0.73,2.32,1.32,2.73,1.48
					C258.226,424.39,256.156,426.84,254.096,427.55z"/>
			</g>
		</g>
		<g>
			<path style="fill:#FFB8B9;" d="M441.456,250.64c0.25,5.04-0.65,25.04-1.04,26.97c-0.31,1.58-1.14,6.75-3.05,9.24
				c-0.01,0.02-0.03,0.05-0.05,0.07c-0.42,0.53-0.88,0.93-1.41,1.14c-2.97,1.16-7.49,0.78-7.49,0.78v-0.01
				c-1.06-0.12-2.86-1.18-5.08-2.85c-9.98-7.44-28.59-26.82-28.59-26.82l7.74-13.81c0,0,0.47,0.53,1.31,1.47
				c4.65,5.27,20.52,23.24,26.56,30.89c1.08-2.98,2.91-7.89,4.09-10.59c0.74-1.7,1.23-5,1.54-8.25c0.45-4.48,0.56-8.87,0.56-8.87
				s-3.32-3.42-3.8-5.84c-0.49-2.42-1.75-6.29-2.42-7.16c0,0,0.96-0.78,1.83,0.19c0.88,0.97,1.46,3,1.46,3l1.34,1.64
				c-0.09-0.27-1.54-4.5-1.63-6.38c-0.1-1.93-0.39-6.68,0.48-6.97c0.12-0.04,0.27-0.06,0.45-0.06c0.18-0.02,0.39-0.01,0.62,0.02
				c0.49,0.04,1.07,0.15,1.67,0.31c0.2,0.05,0.4,0.11,0.6,0.18c0.53,0.17,1.05,0.39,1.52,0.64c0.16,0.09,0.31,0.18,0.46,0.27
				c0.03,0.02,0.05,0.04,0.08,0.06c0.99,0.73,1.63,2.88,2.05,4.88c0,0,0,0,0,0.01c0.26,1.19,0.44,2.33,0.58,3.08
				C442.226,239.9,441.456,250.64,441.456,250.64z"/>
			<g>
				<path style="fill:#FFB5B6;" d="M423.332,285.984c-9.98-7.44-28.59-26.82-28.59-26.82l7.74-13.81c0,0,0.47,0.53,1.31,1.47
					l-0.05,0.11l12.55,30.16L423.332,285.984z"/>
				<path style="fill:#FFB5B6;" d="M435.986,258.87c0.45-4.48,0.56-8.87,0.56-8.87s0.683,0.62,1.163,0.81
					C438.07,250.96,436.946,256.28,435.986,258.87z"/>
				<polygon style="fill:#FFB5B6;" points="438.677,250.955 439.21,251.003 438.677,255.213 				"/>
				<path style="fill:#FFB5B6;" d="M439.546,231.7c-0.11-0.66-0.23-1.3-0.34-1.8c-0.03-0.02-0.05-0.04-0.08-0.06
					c-0.15-0.09-0.3-0.18-0.46-0.27c0.21,1.02,0.6,2.97,0.64,3.29c0.05,0.43,0.24,2.42,0.24,2.42S439.786,233.1,439.546,231.7z
					 M437.566,231.46c-0.15-0.73-0.31-1.8-0.42-2.53c-0.2-0.07-0.4-0.13-0.6-0.18c0.22,1.06,0.64,3.01,0.78,3.43
					c0.18,0.54,0.7,4.11,0.76,4.55C438.056,236.26,437.786,232.58,437.566,231.46z M435.486,230.49c-0.13-0.35-0.42-1.38-0.61-2.05
					c-0.23-0.03-0.44-0.04-0.62-0.02c0.34,0.68,0.96,2.51,1.03,2.94c0.1,0.53,0.78,3.92,0.78,3.92S435.676,231.02,435.486,230.49z"
					/>
			</g>
		</g>
		<g>
			<path style="fill:#A0279B;" d="M404.29,267.096c-1,3-14.745,13.751-16.645,14.903c-0.855,0.519-7.313,21.574-7.313,21.574
				s-32.59-12.638-36.59-14.638c0,0,18-18,22-26l5.9-38.17l0,0l19.1-0.83c0,0,0.8,1.39,2.02,3.49c2.53,4.41,6.86,11.95,9.35,16.48
				c0.73,1.31,1.3,2.37,1.63,3.03C405.742,250.934,405.29,264.096,404.29,267.096z"/>
			<path style="fill:#A0279B;" d="M404.29,267.096c-1,3-14.745,13.751-16.645,14.903c-0.855,0.519-7.313,21.574-7.313,21.574
				s-32.59-12.638-36.59-14.638c0,0,18-18,22-26l5.9-38.17l0,0l19.1-0.83c0,0,0.8,1.39,2.02,3.49c2.53,4.41,6.86,11.95,9.35,16.48
				c0.73,1.31,1.3,2.37,1.63,3.03C405.742,250.934,405.29,264.096,404.29,267.096z"/>
			<path style="fill:#78048B;" d="M381.968,265.483c0,0-6.581-10.581-6.581-10.466c0,0.115,1.677-20.026,1.677-20.026l-6.63-2.415
				l-4.693,30.359c-4,8-22,26-22,26c1.537,0.768,7.297,3.108,13.805,5.697l18.069-21.162l12.462,8.243
				c2.679-1.849,12.906-9.919,15.611-13.577c0.028-0.04,0.058-0.084,0.085-0.123c0-0.001,0.001-0.001,0.001-0.002l-7.875,4.452
				L381.968,265.483z"/>
		</g>
		<g>
			<path style="fill:#FFB8B9;" d="M402.112,243.904c0.888,4.546-0.094,8.373-1.564,10.583c-2,3-5.806-7.553-6.806-11.553
				c-0.74-2.94-0.93-11.3-0.98-15.51C395.292,231.835,399.622,239.374,402.112,243.904z"/>
			<g>
				<path style="fill:#FFB8B9;" d="M407.416,232.58c0,0-1.37,1.83-3.02,4c-1.82,2.4-3.99,5.21-5.01,6.36l-6.62-15.52
					c0,0,3.55-0.16,7.43-3.34c0.24-0.19,0.47-0.4,0.71-0.61c0.42-0.38,0.83-0.8,1.25-1.26L407.416,232.58z"/>
				<path style="fill:#FFB5B6;" d="M407.416,232.58c0,0-1.37,1.83-3.02,4c-2.84-4.51-3.014-8.403-3.364-11.133
					c0.24-0.19-0.366-1.767-0.126-1.977L407.416,232.58z"/>
			</g>
			<path style="fill:#FFB8B9;" d="M424.086,213.27c0.01,0.38,0.01,0.77-0.01,1.17c-0.07,1.56-0.35,3.14-0.7,4.59
				c-0.02,0.08-0.04,0.16-0.06,0.24c-0.01,0-0.01,0-0.01,0c-0.7,2.76-1.63,5.01-1.75,5.67c-0.19,1.02,0.68,3.72,0.68,3.72
				s-0.14,0.26-0.54,0.82c-0.16,0.22-0.37,0.5-0.64,0.83c-0.46,0.6-1.1,1.37-1.97,2.32c-2.48,2.7-8.76,5.12-8.76,5.12
				s-1.54-1.15-3.67-3.57c-2.13-2.42-4.95-6.39-4.95-6.39s-1.64-2.87-2.5-5.58c0.37-0.49,1.16-1.32,1.16-1.32s3.42-2.63,4.77-3.29
				c0,0,2.07,1.09,8-0.45C419.076,215.6,420.076,212.5,424.086,213.27z"/>
			<path style="fill:#FFDADB;" d="M423.376,219.03c-0.02,0.08-0.04,0.16-0.06,0.24c-0.01,0-0.01,0-0.01,0
				c-0.7,2.76-1.63,5.01-1.75,5.67c-0.19,1.02,0.68,3.72,0.68,3.72s-1.61-2.12-1.56-3.39c0.05-1.27,1.37-3.13,2.03-4.67
				C422.916,220.12,423.146,219.56,423.376,219.03z"/>
			<path style="fill:#380094;" d="M405.462,216.563c0,0-1.806,5.548,0,11.419c0,0,0.516-8.323,2.065-10.903L405.462,216.563z"/>
			<path style="fill:#380094;" d="M424.089,213.268c0,0-2.205,0.344-5.004,3.054c-2.8,2.71-8.65,3.274-12.138,1.645
				c0,0,5.468,0.532,8.855-0.871c3.387-1.403,3.387-3.197,5.564-4.356C423.543,211.579,424.089,213.268,424.089,213.268z"/>
			<path style="fill:#380094;" d="M427.006,215.21c-0.93,3.59-3.48,4.03-3.69,4.06c0.38-1.51,0.69-3.18,0.76-4.83
				c0.02-0.4,0.02-0.79,0.01-1.17c-4.01-0.77-5.01,2.33-10.95,3.88c-5.93,1.54-8,0.45-8,0.45c-0.6,0.3-1.62,0.98-2.56,1.65
				c-1.16,0.84-2.21,1.64-2.21,1.64s0.53,1.6,0.36,1.71c-0.57,0.36,0.03,1.75-0.46,2.01c-0.48,0.25-2.19,0.96-2.19,0.96
				c-1.03-1.64-3.46-10.94-2.23-13.91c0.61-1.46,1.35-3,2.54-4.54c1.22-1.63,2.92-3.26,5.4-4.81c4.83-3.03,12.71-3.16,18,0
				C427.076,205.47,427.976,211.47,427.006,215.21z"/>
			<path style="fill:#FFB8B9;" d="M405.14,217.596c0,0-1.548-1.654-3.161-1.666c-1.613-0.012-2.581,3.859-1.548,6.117
				c1.032,2.258,3.548,3.226,3.548,3.226L405.14,217.596z"/>
			<path style="fill:#380094;" d="M397.801,207.225c0,0-10.016,3.436-17.952,2.952c-7.935-0.484-21.29-6.675-21.29-6.675
				s11.613-0.051,15.677-1.405c4.064-1.355,6.581-3.048,11.226-3.629c0,0-3.339-0.968-7.282,0.484c0,0,11.031-10.463,24.895,3.145
				C403.076,202.096,400.156,206.794,397.801,207.225z"/>
			<path style="fill:#DB72B3;" d="M397.801,207.225l0.823,0.581c0,0,2.758-1.5,5.371-4.887l-0.919-0.823
				C403.075,202.096,399.011,205.821,397.801,207.225z"/>
		</g>
		<g>
			<g>
				<path style="fill:#F8C0BE;" d="M385.742,241.934c-6.86,6.86-15.64-3.57-14.1-17.17l19.1-0.83
					C390.742,223.934,392.742,234.934,385.742,241.934z"/>
				<path style="fill:#FFB5B6;" d="M376.479,242.016c7.88-2.438,11.747-9.714,11.747-9.714l-3.387-4.303
					c0,0-6.774-0.677-9.387,0.409c-1.448,0.602-2.831,1.816-3.777,2.78C372.271,235.896,374.107,239.776,376.479,242.016z"/>
			</g>
			<g>
				<path style="fill:#FFB8B9;" d="M382.616,234.58c-9.34,1.53-38.6-1.56-47.89-3.38c-3.66,2.16-11.01,6.4-15.34,8.09
					c-0.25,0.1-0.52,0.21-0.81,0.33c-5.11,2.08-16.66,7.4-21.86,9.8v0.01c0,0-0.01,0-0.01,0.01c-1.27,2.3-4.83,8.75-5.55,9.62
					c-0.87,1.07-2.9,2.33-5.12,2.91c-2.23,0.58-6.29,2.22-6.29,2.22s-0.78-1.64,1.74-2.8c2.51-1.17,3.29-1.55,3.29-1.55l1.45-3.49
					c0,0-7.65,3.39-9,4.17c-1.36,0.77-4.65,3.67-4.65,3.67s-0.23-0.66-0.46-1.63c-0.07-0.29-0.14-0.61-0.2-0.95
					c-0.09-0.49-0.17-1.02-0.21-1.56c-0.02-0.2-0.03-0.41-0.03-0.61c-0.02-0.63,0.01-1.27,0.12-1.87c0.04-0.22,0.1-0.43,0.17-0.64
					c0.08-0.27,0.19-0.53,0.32-0.77c0,0,4.07-3.87,5.52-4.64c1.25-0.67,12.48-4.16,15.5-5.1c4.14-3.1,18.22-13.66,21.95-16.29
					c3.89-2.75,14.36-7.84,16.68-8.96c0.1-0.05,0.2-0.1,0.31-0.15c0.1-0.04,0.15-0.07,0.15-0.07l0.02,0.01
					c0.53-0.23,1.12-0.41,1.81-0.51c2.2-0.32,7.41-0.73,13.93-0.93c13.5-0.42,32.65,0.1,42.48,4.37c0.07,0.03,0.11,0.04,0.11,0.04
					S393.256,232.84,382.616,234.58z"/>
				<path style="fill:#FFB5B6;" d="M318.626,239.59l-0.05,0.03c-5.11,2.08-16.66,7.4-21.86,9.8l0.62-1.58L318.626,239.59z"/>
				<path style="fill:#FFB5B6;" d="M271.966,256.93c-0.07,0.21-0.13,0.42-0.17,0.64l1.54-1.24l2.28-1.5L271.966,256.93z
					 M272.366,258.5l-0.69,0.94c0,0.2,0.01,0.41,0.03,0.61l0.86-1.01l4.93-2.47L272.366,258.5z M272.656,260.63l-0.74,0.98
					c0.06,0.34,0.13,0.66,0.2,0.95l0.74-1.54l3.1-2.52L272.656,260.63z"/>
				<path style="fill:#FFDADB;" d="M390.636,223.89c-0.5-0.18-2.72-0.95-6.15-1.62c-3.39-0.65-29.24-2.31-36.33-2.75
					C361.656,219.1,380.806,219.62,390.636,223.89z"/>
			</g>
		</g>
		
			<linearGradient id="SVGID_00000044153400058470751960000016141059535407302546_" gradientUnits="userSpaceOnUse" x1="437.3211" y1="286.7742" x2="437.1795" y2="286.7682">
			<stop  offset="0" style="stop-color:#FFDADB"/>
			<stop  offset="1" style="stop-color:#FFDADB;stop-opacity:0"/>
		</linearGradient>
		<path style="fill:url(#SVGID_00000044153400058470751960000016141059535407302546_);" d="M437.126,286.62c0,0,0.07,0.07,0.21,0.2
			c-0.01,0.07-0.02,0.1-0.02,0.1L437.126,286.62z"/>
		<path style="fill:#FFDADB;" d="M441.456,250.64c0.25,5.04-0.65,25.04-1.04,26.97c-0.31,1.58-1.14,6.75-3.05,9.24
			c-0.01-0.02-0.02-0.02-0.03-0.03c0.29-1.2,3.08-12.82,3.08-18.78c0-6.29,0.29-20.52,0.49-21.39c0.16-0.73,0.53-8.07,0.35-11.86
			c0.26,1.19,0.44,2.33,0.58,3.08C442.226,239.9,441.456,250.64,441.456,250.64z"/>
		
			<linearGradient id="SVGID_00000178163765788207631060000016944441757363234447_" gradientUnits="userSpaceOnUse" x1="426.5337" y1="317.5385" x2="404.8563" y2="311.345">
			<stop  offset="0" style="stop-color:#432B99"/>
			<stop  offset="1" style="stop-color:#432B99;stop-opacity:0"/>
		</linearGradient>
		<path style="fill:url(#SVGID_00000178163765788207631060000016944441757363234447_);" d="M425.836,320.41
			c-0.61-0.92-1.34-2.04-1.93-2.95c-0.63-0.98-3.541-1.585-3.541-1.585l-30.539-11.895c11.85,3.95,34.6,11.69,34.6,11.69l-0.01,0.02
			C424.456,315.81,425.156,318.02,425.836,320.41z"/>
		<g>
			<polygon style="fill:#F8C0BE;" points="363.548,359.806 364.516,359.806 365.581,358.838 367.468,368.564 363.548,373.935 
				361.806,365.515 			"/>
			<path style="fill:#380094;" d="M424.426,315.67l-0.01,0.02l-0.51,1.77l-2,6.92c0,0-10.4,0.59-21.36,1.38
				c-1.1,0.08-2.2,0.16-3.3,0.25c-7.84,0.58-15.46,1.25-19.27,1.86c-1.79,0.29-3.93,0.47-6.22,0.56
				c-10.08,0.41-23.36-0.85-25.72-2.11c-2.9-1.55-12.19-7.16-12-18.39c0.19-11.23,9.71-19,9.71-19s33.84,11.14,40.03,13.07
				c1.14,0.36,3.25,1.05,5.93,1.94l0.12,0.04C401.676,307.93,424.426,315.67,424.426,315.67z"/>
			<path style="fill:#170052;" d="M414.932,315.875l-14.39,9.89c-8.93,0.64-18.23,1.41-22.57,2.11c-1.79,0.29-3.93,0.47-6.22,0.56
				h-0.1l26.32-6.56L414.932,315.875z"/>
			<path style="fill:#380094;" d="M427.126,325.93c0.2,2.33-8.32,9.88-10.84,12.2c-2.51,2.32-49.74,33.29-49.74,33.29
				s-1.93-9.29-0.97-12.58c0,0,10.46-9.29,12.97-12.39c2.52-3.1,13.74-17.61,15.1-18.39c0.32-0.19,1.69-0.97,3.6-2.05
				c6.1-3.5,17.69-10.14,17.69-10.14l7.77-0.16l1.71-0.03c0,0,0,0,0,0.01c0.04,0.12,0.74,2.33,1.42,4.72
				C426.446,322.56,427.036,324.85,427.126,325.93z"/>
			<g>
				<path style="fill:#A0279B;" d="M363.546,373.93c0,0-5.8,6.39-6.68,7.55c-0.87,1.16-4.06,6.78-4.74,8.62
					c-0.65,1.77-3.02,7.52-3.88,8.69c-0.04,0.05-0.06,0.08-0.09,0.11c-0.77,0.87-4.93,1.55-5.61,1.26s-0.39-6.68,0.49-10.35
					c0.87-3.68,3.38-9.68,3.48-14.33c0.1-4.64-0.87-13.16,2.71-19.16c0,0,1,0.13,2.54,0.39c2.97,0.5,7.96,1.51,11.78,3.1
					C363.546,359.81,362.776,368.61,363.546,373.93z"/>
				<path style="fill:#78048B;" d="M347.196,384.36c-0.78,3.03-1.68,11.55-1.68,11.55s1.78,1.97,2.73,2.88
					c-0.04,0.05-0.06,0.08-0.09,0.11c-0.77,0.87-4.93,1.55-5.61,1.26s-0.39-6.68,0.49-10.35c0.87-3.68,3.38-9.68,3.48-14.33
					c0.1-4.64-0.87-13.16,2.71-19.16c0,0,1,0.13,2.54,0.39c-0.83,1.43-1.94,3.48-2.57,5.26c-1.1,3.1,0.13,6.84,0.38,10
					C349.836,375.13,347.966,381.33,347.196,384.36z"/>
			</g>
		</g>
	</g>
	<g>
		<rect x="409.038" y="156.165" style="fill:#7B1A8E;" width="40.064" height="3.29"/>
		<rect x="409.038" y="164.1" style="fill:#7B1A8E;" width="31.548" height="3.29"/>
		<rect x="409.037" y="172.035" style="fill:#7B1A8E;" width="10.32" height="3.29"/>
		<rect x="421.357" y="172.035" style="fill:#7B1A8E;" width="27.75" height="3.29"/>
	</g>
	<g>
		<g>
			<rect x="259.423" y="46.814" style="fill:#7B1A8E;" width="33.998" height="3.29"/>
			<rect x="259.423" y="62.685" style="fill:#7B1A8E;" width="49.191" height="3.29"/>
			<rect x="259.423" y="78.556" style="fill:#7B1A8E;" width="39.707" height="3.29"/>
		</g>
		<g>
			<path style="fill:#7D80FF;" d="M242.227,54.718l-4.399-4.4c-0.586-0.586-0.586-1.536,0-2.121c0.586-0.586,1.536-0.586,2.121,0
				l2.278,2.278l7.214-7.213c0.586-0.586,1.535-0.586,2.121,0c0.586,0.586,0.586,1.536,0,2.121L242.227,54.718z"/>
			<path style="fill:#7D80FF;" d="M242.227,70.588l-4.399-4.399c-0.586-0.585-0.586-1.536,0-2.121c0.586-0.586,1.535-0.586,2.121,0
				l2.278,2.278l7.214-7.213c0.586-0.586,1.535-0.586,2.121,0c0.586,0.586,0.586,1.536,0,2.121L242.227,70.588z"/>
			<path style="fill:#7D80FF;" d="M242.227,86.459l-4.399-4.399c-0.586-0.585-0.586-1.536,0-2.121c0.586-0.586,1.535-0.586,2.121,0
				l2.278,2.278l7.214-7.213c0.586-0.586,1.535-0.586,2.121,0c0.586,0.586,0.586,1.536,0,2.121L242.227,86.459z"/>
		</g>
	</g>
	<g>
		<path style="fill:#8BA5CD;" d="M185.105,303.513H94.823c-2.648,0-4.795-2.147-4.795-4.795v-51.34c0-2.648,2.147-4.795,4.795-4.795
			h90.282c2.648,0,4.795,2.147,4.795,4.795v51.34C189.9,301.366,187.753,303.513,185.105,303.513z"/>
		<path style="fill:#E6F1FF;" d="M183.557,302.15H93.275c-2.648,0-4.795-2.147-4.795-4.795v-51.34c0-2.648,2.147-4.795,4.795-4.795
			h90.282c2.648,0,4.795,2.147,4.795,4.795v51.34C188.351,300.003,186.205,302.15,183.557,302.15z"/>
		<g>
			<rect x="97.09" y="249.227" style="fill:#7B1A8E;" width="24.77" height="4.26"/>
			<rect x="125.86" y="249.227" style="fill:#7B1A8E;" width="10.94" height="4.26"/>
		</g>
		<g style="opacity:0.35;">
			<path style="fill:#762096;" d="M106.416,293.713c-0.207,0-0.375-0.168-0.375-0.375v-31.689c0-0.207,0.168-0.375,0.375-0.375
				s0.375,0.168,0.375,0.375v31.689C106.791,293.545,106.623,293.713,106.416,293.713z"/>
			<path style="fill:#762096;" d="M128.093,293.713c-0.207,0-0.375-0.168-0.375-0.375v-31.689c0-0.207,0.168-0.375,0.375-0.375
				c0.207,0,0.375,0.168,0.375,0.375v31.689C128.468,293.545,128.3,293.713,128.093,293.713z"/>
			<path style="fill:#762096;" d="M149.771,293.713c-0.207,0-0.375-0.168-0.375-0.375v-31.689c0-0.207,0.168-0.375,0.375-0.375
				c0.207,0,0.375,0.168,0.375,0.375v31.689C150.146,293.545,149.978,293.713,149.771,293.713z"/>
			<path style="fill:#762096;" d="M171.448,293.713c-0.207,0-0.375-0.168-0.375-0.375v-31.689c0-0.207,0.168-0.375,0.375-0.375
				c0.207,0,0.375,0.168,0.375,0.375v31.689C171.823,293.545,171.655,293.713,171.448,293.713z"/>
		</g>
		<g>
			<path style="fill:#8AA9FF;" d="M157.414,281.815c-5.277,0-7.92-2.639-10.477-5.19c-2.478-2.474-4.818-4.81-9.557-4.81
				c-4.739,0-7.079,2.336-9.556,4.81c-2.556,2.552-5.198,5.19-10.475,5.19c-5.276,0-7.919-2.639-10.475-5.19
				c-2.477-2.474-4.817-4.81-9.556-4.81c-0.359,0-0.65-0.291-0.65-0.65c0-0.359,0.291-0.65,0.65-0.65
				c5.276,0,7.919,2.639,10.475,5.19c2.477,2.474,4.817,4.81,9.556,4.81s7.079-2.336,9.556-4.81c2.556-2.552,5.198-5.19,10.475-5.19
				c5.277,0,7.92,2.639,10.476,5.19c2.478,2.474,4.818,4.81,9.558,4.81c4.74,0,7.08-2.336,9.558-4.81
				c2.556-2.552,5.199-5.19,10.476-5.19c0.359,0,0.65,0.291,0.65,0.65c0,0.359-0.291,0.65-0.65,0.65c-4.74,0-7.08,2.336-9.558,4.81
				C165.335,279.176,162.691,281.815,157.414,281.815z"/>
			<g>
				<path style="fill:#FFFFFF;" d="M180.761,270.964c0,1.83-1.483,3.314-3.313,3.314c-1.83,0-3.313-1.483-3.313-3.314
					c0-1.83,1.484-3.314,3.313-3.314C179.278,267.651,180.761,269.134,180.761,270.964z"/>
			</g>
		</g>
	</g>
	<g>
		<g>
			<path style="fill:#8BA5CD;" d="M193.234,196.56h-87.443c-2.648,0-4.795-2.147-4.795-4.795v-65.161
				c0-2.648,2.147-4.795,4.795-4.795h87.443c2.648,0,4.795,2.147,4.795,4.795v65.161C198.029,194.414,195.882,196.56,193.234,196.56
				z"/>
			<path style="fill:#E6F1FF;" d="M191.686,195.109h-87.443c-2.648,0-4.795-2.147-4.795-4.795v-65.161
				c0-2.648,2.147-4.795,4.795-4.795h87.443c2.648,0,4.795,2.147,4.795,4.795v65.161
				C196.48,192.962,194.334,195.109,191.686,195.109z"/>
			<path style="fill:#8AA9FF;" d="M104.243,191.109c-0.438,0-0.794-0.356-0.794-0.795v-65.161c0-0.438,0.356-0.795,0.794-0.795
				h87.443c0.439,0,0.795,0.356,0.795,0.795v65.161c0,0.438-0.356,0.795-0.795,0.795H104.243z"/>
			<g>
				<defs>
					<path id="SVGID_00000130635215242134082940000003665894941551019941_" d="M104.243,191.109c-0.438,0-0.794-0.356-0.794-0.795
						v-65.161c0-0.438,0.356-0.795,0.794-0.795h87.443c0.439,0,0.795,0.356,0.795,0.795v65.161c0,0.438-0.356,0.795-0.795,0.795
						H104.243z"/>
				</defs>
				<clipPath id="SVGID_00000053508007555728622280000017675093547649670331_">
					<use xlink:href="#SVGID_00000130635215242134082940000003665894941551019941_"  style="overflow:visible;"/>
				</clipPath>
				<path style="clip-path:url(#SVGID_00000053508007555728622280000017675093547649670331_);fill:#DBF0FF;" d="M214.801,190.702
					l-39.823-9.638l35.37-61.23l-0.866-0.5l-10.738,18.589l-26.343-6.375l6.767-11.714l-0.866-0.5l-8.781,15.2l-11.903-2.881
					l7.739-13.397l-0.866-0.5l-7.886,13.652l-17.761-4.298l4.203-7.276l-0.866-0.5l-9.129,15.803l-13.408-3.245l6.966-12.058
					l-0.866-0.5l-14.417,24.958l-23.477-5.682l-0.235,0.972l23.191,5.613l-3.041,5.264l-25.574-6.189l-0.235,0.972l25.288,6.12
					l-32.483,56.231l0.866,0.5l32.63-56.486l6.141,1.486l-14.146,24.488l0.866,0.5l14.814-25.645l-7.155-1.732l3.041-5.264
					l13.408,3.245l-34.029,58.907l0.866,0.5l23.347-40.416l30.677,7.424l-18.77,32.492l0.866,0.5l18.917-32.746l26.343,6.375
					l-14.945,25.871l0.866,0.5l15.092-26.126l40.109,9.707L214.801,190.702z M198.223,138.826l-15.297,26.481l-26.343-6.375
					l15.297-26.481L198.223,138.826z M164.221,143.709l-6.783,11.743l-30.677-7.424l6.783-11.742L164.221,143.709z M168.999,135.437
					l-4.257,7.37l-11.903-2.88l4.257-7.37L168.999,135.437z M138.322,128.013l17.761,4.298l-4.257,7.37l-17.761-4.298
					L138.322,128.013z M112.338,144.537l6.783-11.742l13.408,3.245l-6.783,11.742L112.338,144.537z M115.931,166.774l10.308-17.844
					l30.677,7.424l-10.308,17.844L115.931,166.774z M151.63,167.505l14.572,3.494l-4.025,6.967l-14.556-3.523L151.63,167.505z
					 M163.191,178.211l4.548-7.872l-15.586-3.738l3.909-6.767l26.343,6.375l-8.439,14.609L163.191,178.211z"/>
			</g>
			<polygon style="fill:#7691FF;" points="130.044,120.358 127.987,131.731 145.058,120.358 			"/>
		</g>
		<g>
			<path style="fill:#E6F1FF;" d="M127.718,89.391H102.18c-1.986,0-3.596,1.61-3.596,3.596v19.712c0,1.986,1.61,3.596,3.596,3.596
				h14.678c1.313,0,2.522,0.716,3.153,1.867l7.439,13.57c0.116,0.212,0.421,0.212,0.537,0l7.439-13.57
				c0.631-1.151,1.84-1.867,3.153-1.867h14.678c1.986,0,3.596-1.61,3.596-3.596V92.986c0-1.986-1.61-3.596-3.596-3.596H127.718z"/>
			<g>
				<rect x="123.194" y="97.139" style="fill:#7B1A8E;" width="24.77" height="4.26"/>
				<rect x="123.194" y="104.953" style="fill:#7B1A8E;" width="16.254" height="4.26"/>
			</g>
			<path style="fill:#E07ED0;" d="M109.862,95.838c-1.751,0.18-3.254,1.489-3.67,3.199c-0.24,0.986-0.116,1.92,0.24,2.728
				l3.037,7.088c0.317,0.74,1.365,0.74,1.682,0l3.04-7.087c0,0,0.361-1.101,0.361-1.71
				C114.552,97.566,112.406,95.577,109.862,95.838z M110.31,101.767c-0.944,0-1.71-0.766-1.71-1.71s0.766-1.71,1.71-1.71
				s1.71,0.766,1.71,1.71S111.254,101.767,110.31,101.767z"/>
		</g>
	</g>
	<g>
		<path style="fill:#7B1A8E;" d="M369.125,86.929c-19.799,0-35.849,16.05-35.849,35.849c0,19.799,16.05,35.849,35.849,35.849
			s35.849-16.05,35.849-35.849C404.974,102.979,388.924,86.929,369.125,86.929z M369.125,148.127c-14,0-25.349-11.349-25.349-25.349
			c0-14,11.349-25.349,25.349-25.349c14,0,25.349,11.349,25.349,25.349C394.474,136.778,383.125,148.127,369.125,148.127z"/>
		<g>
			<path style="fill:#7B1A8E;" d="M369.125,144.514c-11.985,0-21.736-9.751-21.736-21.736c0-11.985,9.751-21.736,21.736-21.736
				c11.985,0,21.736,9.751,21.736,21.736C390.862,134.763,381.111,144.514,369.125,144.514z M369.125,101.791
				c-11.572,0-20.986,9.415-20.986,20.986c0,11.572,9.414,20.986,20.986,20.986c11.572,0,20.986-9.415,20.986-20.986
				C390.112,111.206,380.698,101.791,369.125,101.791z"/>
		</g>
		<path style="fill:#E07ED0;" d="M369.125,86.929v10.5c14,0,25.349,11.349,25.349,25.349c0,14-11.349,25.349-25.349,25.349
			c-9.804,0-18.302-5.57-22.519-13.714l-9.328,4.819c5.963,11.518,17.981,19.395,31.847,19.395c19.799,0,35.849-16.05,35.849-35.849
			C404.974,102.979,388.924,86.929,369.125,86.929z"/>
		<g>
			<path style="fill:#7B1A8E;" d="M356.168,127.638l3.291-7.427h-4.149v-2.144h6.915v1.527l-3.376,8.043H356.168z"/>
			<path style="fill:#7B1A8E;" d="M370.019,127.638h-6.955v-1.705l2.341-2.366c0.669-0.699,1.105-1.177,1.311-1.432
				c0.206-0.256,0.349-0.476,0.43-0.659c0.081-0.183,0.121-0.376,0.121-0.577c0-0.249-0.081-0.446-0.242-0.59
				c-0.162-0.145-0.39-0.216-0.682-0.216c-0.302,0-0.607,0.086-0.915,0.259c-0.308,0.173-0.656,0.427-1.045,0.764l-1.423-1.665
				c0.494-0.441,0.909-0.757,1.245-0.947c0.337-0.19,0.703-0.336,1.099-0.436c0.396-0.1,0.84-0.15,1.334-0.15
				c0.62,0,1.174,0.109,1.661,0.328c0.487,0.219,0.865,0.53,1.135,0.934c0.268,0.404,0.403,0.858,0.403,1.36
				c0,0.376-0.048,0.723-0.142,1.042c-0.094,0.319-0.239,0.633-0.436,0.941c-0.197,0.308-0.458,0.632-0.783,0.973
				c-0.326,0.341-1.02,0.988-2.082,1.94v0.065h3.625V127.638z"/>
			<path style="fill:#7B1A8E;" d="M375.716,120.912c0,0.961-0.217,1.706-0.649,2.232c-0.433,0.527-1.049,0.79-1.849,0.79
				c-0.752,0-1.347-0.272-1.786-0.816c-0.44-0.544-0.659-1.279-0.659-2.206c0-0.961,0.215-1.701,0.643-2.219
				c0.429-0.518,1.029-0.776,1.803-0.776c0.765,0,1.372,0.269,1.822,0.806C375.491,119.26,375.716,119.99,375.716,120.912z
				 M372.746,120.938c0,0.503,0.041,0.865,0.124,1.088c0.083,0.223,0.208,0.335,0.374,0.335c0.166,0,0.289-0.109,0.37-0.328
				c0.081-0.219,0.121-0.583,0.121-1.095c0-0.503-0.04-0.866-0.121-1.088c-0.081-0.223-0.204-0.334-0.37-0.334
				c-0.171,0-0.296,0.114-0.377,0.341C372.787,120.084,372.746,120.444,372.746,120.938z M380.495,118.054l-5.316,9.584h-1.946
				l5.315-9.584H380.495z M383.005,124.727c0,0.957-0.218,1.699-0.652,2.226c-0.435,0.527-1.05,0.79-1.846,0.79
				c-0.751,0-1.347-0.272-1.786-0.816c-0.439-0.544-0.658-1.277-0.658-2.199c0-0.961,0.214-1.701,0.643-2.219
				c0.428-0.518,1.028-0.777,1.802-0.777c0.766,0,1.373,0.269,1.823,0.806C382.78,123.075,383.005,123.805,383.005,124.727z
				 M380.036,124.753c0,0.502,0.042,0.865,0.125,1.088c0.083,0.223,0.207,0.334,0.373,0.334c0.188,0,0.318-0.128,0.391-0.383
				c0.072-0.256,0.107-0.602,0.107-1.039c0-0.437-0.035-0.783-0.107-1.039c-0.072-0.255-0.202-0.383-0.391-0.383
				c-0.17,0-0.296,0.114-0.377,0.341C380.077,123.899,380.036,124.26,380.036,124.753z"/>
		</g>
	</g>
</g>
</svg>
